<mxfile host="app.diagrams.net" modified="2023-11-09T23:30:41.758Z" agent="Mozilla/5.0 (Windows NT 10.0; Win64; x64) AppleWebKit/537.36 (KHTML, like Gecko) Chrome/119.0.0.0 Safari/537.36 Edg/119.0.0.0" etag="iIkGsRtQXkV5OuL8ZVcH" version="22.1.0" type="device">
  <diagram id="1lKjFZPhUGfr9C2OFP6C" name="Page-1">
    <mxGraphModel dx="1042" dy="569" grid="1" gridSize="10" guides="1" tooltips="1" connect="1" arrows="1" fold="1" page="1" pageScale="1" pageWidth="827" pageHeight="1169" background="none" math="1" shadow="0">
      <root>
        <mxCell id="0" />
        <mxCell id="1" parent="0" />
        <mxCell id="A0CsdmSSOmwbBhm7UZ2E-27" value="" style="ellipse;whiteSpace=wrap;html=1;aspect=fixed;strokeWidth=1;perimeterSpacing=0;" parent="1" vertex="1">
          <mxGeometry x="490" y="585" width="250" height="250" as="geometry" />
        </mxCell>
        <mxCell id="A0CsdmSSOmwbBhm7UZ2E-4" value="" style="edgeStyle=orthogonalEdgeStyle;rounded=0;orthogonalLoop=1;jettySize=auto;html=1;" parent="1" source="A0CsdmSSOmwbBhm7UZ2E-2" target="A0CsdmSSOmwbBhm7UZ2E-3" edge="1">
          <mxGeometry relative="1" as="geometry" />
        </mxCell>
        <mxCell id="A0CsdmSSOmwbBhm7UZ2E-2" value="&lt;font style=&quot;font-size: 16px;&quot;&gt;$$x_{0}$$&lt;/font&gt;" style="ellipse;whiteSpace=wrap;html=1;aspect=fixed;strokeWidth=3;fillColor=#EEEEEE;" parent="1" vertex="1">
          <mxGeometry x="75" y="680" width="50" height="50" as="geometry" />
        </mxCell>
        <mxCell id="A0CsdmSSOmwbBhm7UZ2E-6" value="" style="edgeStyle=orthogonalEdgeStyle;rounded=0;orthogonalLoop=1;jettySize=auto;html=1;" parent="1" source="A0CsdmSSOmwbBhm7UZ2E-3" target="A0CsdmSSOmwbBhm7UZ2E-5" edge="1">
          <mxGeometry relative="1" as="geometry" />
        </mxCell>
        <mxCell id="A0CsdmSSOmwbBhm7UZ2E-3" value="&lt;font style=&quot;font-size: 16px;&quot;&gt;$$x_{1}$$&lt;/font&gt;" style="ellipse;whiteSpace=wrap;html=1;aspect=fixed;strokeWidth=3;fillColor=#EEEEEE;" parent="1" vertex="1">
          <mxGeometry x="155" y="680" width="50" height="50" as="geometry" />
        </mxCell>
        <mxCell id="A0CsdmSSOmwbBhm7UZ2E-8" value="" style="edgeStyle=orthogonalEdgeStyle;rounded=0;orthogonalLoop=1;jettySize=auto;html=1;" parent="1" source="A0CsdmSSOmwbBhm7UZ2E-5" target="A0CsdmSSOmwbBhm7UZ2E-7" edge="1">
          <mxGeometry relative="1" as="geometry" />
        </mxCell>
        <mxCell id="A0CsdmSSOmwbBhm7UZ2E-5" value="&lt;font style=&quot;font-size: 16px;&quot;&gt;$$x_{2}$$&lt;/font&gt;" style="ellipse;whiteSpace=wrap;html=1;aspect=fixed;strokeWidth=3;fillColor=#EEEEEE;" parent="1" vertex="1">
          <mxGeometry x="240" y="680" width="50" height="50" as="geometry" />
        </mxCell>
        <mxCell id="A0CsdmSSOmwbBhm7UZ2E-10" value="" style="edgeStyle=orthogonalEdgeStyle;rounded=0;orthogonalLoop=1;jettySize=auto;html=1;" parent="1" source="A0CsdmSSOmwbBhm7UZ2E-7" edge="1">
          <mxGeometry relative="1" as="geometry">
            <mxPoint x="414" y="705" as="targetPoint" />
          </mxGeometry>
        </mxCell>
        <mxCell id="A0CsdmSSOmwbBhm7UZ2E-7" value="&lt;font style=&quot;font-size: 16px;&quot;&gt;$$x_{3}$$&lt;/font&gt;" style="ellipse;whiteSpace=wrap;html=1;aspect=fixed;strokeWidth=3;fillColor=#EEEEEE;" parent="1" vertex="1">
          <mxGeometry x="330" y="680" width="50" height="50" as="geometry" />
        </mxCell>
        <mxCell id="A0CsdmSSOmwbBhm7UZ2E-18" value="" style="edgeStyle=orthogonalEdgeStyle;rounded=0;orthogonalLoop=1;jettySize=auto;html=1;" parent="1" source="A0CsdmSSOmwbBhm7UZ2E-11" target="A0CsdmSSOmwbBhm7UZ2E-16" edge="1">
          <mxGeometry relative="1" as="geometry" />
        </mxCell>
        <mxCell id="A0CsdmSSOmwbBhm7UZ2E-11" value="&lt;font style=&quot;font-size: 20px;&quot;&gt;$$\cdots$$&lt;/font&gt;" style="text;html=1;strokeColor=none;fillColor=none;align=center;verticalAlign=middle;whiteSpace=wrap;rounded=0;strokeWidth=3;" parent="1" vertex="1">
          <mxGeometry x="415" y="690" width="25" height="30" as="geometry" />
        </mxCell>
        <mxCell id="A0CsdmSSOmwbBhm7UZ2E-16" value="&lt;font style=&quot;font-size: 16px;&quot;&gt;$$x_{tr}$$&lt;/font&gt;" style="ellipse;whiteSpace=wrap;html=1;aspect=fixed;strokeWidth=3;fillColor=#EEEEEE;" parent="1" vertex="1">
          <mxGeometry x="470" y="680" width="50" height="50" as="geometry" />
        </mxCell>
        <mxCell id="A0CsdmSSOmwbBhm7UZ2E-21" value="&lt;font style=&quot;font-size: 16px;&quot;&gt;$$x_{tr+cy}$$&lt;/font&gt;" style="ellipse;whiteSpace=wrap;html=1;aspect=fixed;strokeWidth=3;fillColor=#EEEEEE;" parent="1" vertex="1">
          <mxGeometry x="500" y="770" width="50" height="50" as="geometry" />
        </mxCell>
        <mxCell id="A0CsdmSSOmwbBhm7UZ2E-23" value="&lt;font style=&quot;font-size: 16px;&quot;&gt;$$x_{tr+1}$$&lt;/font&gt;" style="ellipse;whiteSpace=wrap;html=1;aspect=fixed;strokeWidth=3;fillColor=#EEEEEE;" parent="1" vertex="1">
          <mxGeometry x="500" y="600" width="50" height="50" as="geometry" />
        </mxCell>
        <mxCell id="A0CsdmSSOmwbBhm7UZ2E-24" value="&lt;font style=&quot;font-size: 16px;&quot;&gt;$$x_{tr+3}$$&lt;/font&gt;" style="ellipse;whiteSpace=wrap;html=1;aspect=fixed;strokeWidth=3;fillColor=#EEEEEE;" parent="1" vertex="1">
          <mxGeometry x="680" y="600" width="50" height="50" as="geometry" />
        </mxCell>
        <mxCell id="A0CsdmSSOmwbBhm7UZ2E-25" value="&lt;font style=&quot;font-size: 16px;&quot;&gt;$$x_{tr+4}$$&lt;/font&gt;" style="ellipse;whiteSpace=wrap;html=1;aspect=fixed;strokeWidth=3;fillColor=#EEEEEE;" parent="1" vertex="1">
          <mxGeometry x="710" y="680" width="50" height="50" as="geometry" />
        </mxCell>
        <mxCell id="A0CsdmSSOmwbBhm7UZ2E-28" value="&lt;font style=&quot;font-size: 16px;&quot;&gt;$$x_{tr+5}$$&lt;/font&gt;" style="ellipse;whiteSpace=wrap;html=1;aspect=fixed;strokeWidth=3;fillColor=#EEEEEE;" parent="1" vertex="1">
          <mxGeometry x="680" y="770" width="50" height="50" as="geometry" />
        </mxCell>
        <mxCell id="A0CsdmSSOmwbBhm7UZ2E-29" value="&lt;font style=&quot;font-size: 16px;&quot;&gt;$$x_{tr+2}$$&lt;/font&gt;" style="ellipse;whiteSpace=wrap;html=1;aspect=fixed;strokeWidth=3;fillColor=#EEEEEE;" parent="1" vertex="1">
          <mxGeometry x="590" y="560" width="50" height="50" as="geometry" />
        </mxCell>
        <mxCell id="A0CsdmSSOmwbBhm7UZ2E-34" value="" style="endArrow=classic;startArrow=classic;html=1;rounded=0;" parent="1" edge="1">
          <mxGeometry width="50" height="50" relative="1" as="geometry">
            <mxPoint x="75" y="920" as="sourcePoint" />
            <mxPoint x="760" y="920" as="targetPoint" />
          </mxGeometry>
        </mxCell>
        <mxCell id="A0CsdmSSOmwbBhm7UZ2E-37" value="" style="endArrow=classic;startArrow=classic;html=1;rounded=0;" parent="1" edge="1">
          <mxGeometry width="50" height="50" relative="1" as="geometry">
            <mxPoint x="75" y="900" as="sourcePoint" />
            <mxPoint x="510" y="900" as="targetPoint" />
          </mxGeometry>
        </mxCell>
        <mxCell id="A0CsdmSSOmwbBhm7UZ2E-38" value="" style="endArrow=classic;startArrow=classic;html=1;rounded=0;" parent="1" edge="1">
          <mxGeometry width="50" height="50" relative="1" as="geometry">
            <mxPoint x="510" y="900" as="sourcePoint" />
            <mxPoint x="760" y="900" as="targetPoint" />
          </mxGeometry>
        </mxCell>
        <mxCell id="A0CsdmSSOmwbBhm7UZ2E-40" value="&lt;font style=&quot;font-size: 16px;&quot;&gt;$$\mbox{Transient Lenght}$$&lt;/font&gt;" style="text;html=1;strokeColor=none;fillColor=none;align=center;verticalAlign=middle;whiteSpace=wrap;rounded=0;" parent="1" vertex="1">
          <mxGeometry x="220" y="870" width="140" height="30" as="geometry" />
        </mxCell>
        <mxCell id="A0CsdmSSOmwbBhm7UZ2E-41" value="&lt;font style=&quot;font-size: 16px;&quot;&gt;$$\mbox{Cycle Lenght}$$&lt;/font&gt;" style="text;html=1;strokeColor=none;fillColor=none;align=center;verticalAlign=middle;whiteSpace=wrap;rounded=0;" parent="1" vertex="1">
          <mxGeometry x="570" y="870" width="140" height="30" as="geometry" />
        </mxCell>
        <mxCell id="A0CsdmSSOmwbBhm7UZ2E-42" value="&lt;font style=&quot;font-size: 16px;&quot;&gt;$$\mbox{Orbit Lenght}$$&lt;/font&gt;" style="text;html=1;strokeColor=none;fillColor=none;align=center;verticalAlign=middle;whiteSpace=wrap;rounded=0;" parent="1" vertex="1">
          <mxGeometry x="357.5" y="920" width="140" height="30" as="geometry" />
        </mxCell>
        <mxCell id="A0CsdmSSOmwbBhm7UZ2E-68" value="" style="endArrow=classic;html=1;rounded=1;labelBackgroundColor=default;strokeColor=default;align=center;verticalAlign=middle;fontFamily=Helvetica;fontSize=11;fontColor=default;shape=connector;curved=1;entryX=0.161;entryY=0.894;entryDx=0;entryDy=0;entryPerimeter=0;exitX=0.053;exitY=0.277;exitDx=0;exitDy=0;exitPerimeter=0;" parent="1" source="A0CsdmSSOmwbBhm7UZ2E-27" target="A0CsdmSSOmwbBhm7UZ2E-23" edge="1">
          <mxGeometry width="50" height="50" relative="1" as="geometry">
            <mxPoint x="480" y="700" as="sourcePoint" />
            <mxPoint x="510" y="640" as="targetPoint" />
          </mxGeometry>
        </mxCell>
        <mxCell id="A0CsdmSSOmwbBhm7UZ2E-70" value="" style="endArrow=classic;html=1;rounded=1;labelBackgroundColor=default;strokeColor=default;align=center;verticalAlign=middle;fontFamily=Helvetica;fontSize=11;fontColor=default;shape=connector;curved=1;entryX=-0.014;entryY=0.539;entryDx=0;entryDy=0;entryPerimeter=0;exitX=0.372;exitY=0.014;exitDx=0;exitDy=0;exitPerimeter=0;" parent="1" source="A0CsdmSSOmwbBhm7UZ2E-27" target="A0CsdmSSOmwbBhm7UZ2E-29" edge="1">
          <mxGeometry width="50" height="50" relative="1" as="geometry">
            <mxPoint x="540" y="635" as="sourcePoint" />
            <mxPoint x="590" y="585" as="targetPoint" />
          </mxGeometry>
        </mxCell>
        <mxCell id="A0CsdmSSOmwbBhm7UZ2E-71" value="" style="endArrow=classic;html=1;rounded=1;labelBackgroundColor=default;strokeColor=default;align=center;verticalAlign=middle;fontFamily=Helvetica;fontSize=11;fontColor=default;shape=connector;curved=1;entryX=0.128;entryY=0.141;entryDx=0;entryDy=0;entryPerimeter=0;exitX=0.769;exitY=0.08;exitDx=0;exitDy=0;exitPerimeter=0;" parent="1" source="A0CsdmSSOmwbBhm7UZ2E-27" target="A0CsdmSSOmwbBhm7UZ2E-24" edge="1">
          <mxGeometry width="50" height="50" relative="1" as="geometry">
            <mxPoint x="627.5" y="585" as="sourcePoint" />
            <mxPoint x="687.5" y="606.1627906976744" as="targetPoint" />
          </mxGeometry>
        </mxCell>
        <mxCell id="A0CsdmSSOmwbBhm7UZ2E-72" value="" style="endArrow=classic;html=1;rounded=1;labelBackgroundColor=default;strokeColor=default;align=center;verticalAlign=middle;fontFamily=Helvetica;fontSize=11;fontColor=default;shape=connector;curved=1;entryX=0.524;entryY=-0.018;entryDx=0;entryDy=0;entryPerimeter=0;exitX=0.978;exitY=0.354;exitDx=0;exitDy=0;exitPerimeter=0;" parent="1" source="A0CsdmSSOmwbBhm7UZ2E-27" target="A0CsdmSSOmwbBhm7UZ2E-25" edge="1">
          <mxGeometry width="50" height="50" relative="1" as="geometry">
            <mxPoint x="720" y="630" as="sourcePoint" />
            <mxPoint x="740" y="680" as="targetPoint" />
          </mxGeometry>
        </mxCell>
        <mxCell id="A0CsdmSSOmwbBhm7UZ2E-73" value="" style="endArrow=classic;html=1;rounded=1;labelBackgroundColor=default;strokeColor=default;align=center;verticalAlign=middle;fontFamily=Helvetica;fontSize=11;fontColor=default;shape=connector;curved=1;entryX=0.813;entryY=0.106;entryDx=0;entryDy=0;entryPerimeter=0;exitX=0.94;exitY=0.741;exitDx=0;exitDy=0;exitPerimeter=0;" parent="1" source="A0CsdmSSOmwbBhm7UZ2E-27" target="A0CsdmSSOmwbBhm7UZ2E-28" edge="1">
          <mxGeometry width="50" height="50" relative="1" as="geometry">
            <mxPoint x="760" y="730" as="sourcePoint" />
            <mxPoint x="730" y="780" as="targetPoint" />
          </mxGeometry>
        </mxCell>
        <mxCell id="A0CsdmSSOmwbBhm7UZ2E-74" value="" style="endArrow=classic;html=1;rounded=1;labelBackgroundColor=default;strokeColor=default;align=center;verticalAlign=middle;fontFamily=Helvetica;fontSize=11;fontColor=default;shape=connector;curved=1;entryX=0.435;entryY=0.996;entryDx=0;entryDy=0;entryPerimeter=0;exitX=0.013;exitY=0.612;exitDx=0;exitDy=0;exitPerimeter=0;" parent="1" source="A0CsdmSSOmwbBhm7UZ2E-27" target="A0CsdmSSOmwbBhm7UZ2E-16" edge="1">
          <mxGeometry width="50" height="50" relative="1" as="geometry">
            <mxPoint x="470" y="780" as="sourcePoint" />
            <mxPoint x="490" y="730" as="targetPoint" />
          </mxGeometry>
        </mxCell>
        <mxCell id="A0CsdmSSOmwbBhm7UZ2E-75" value="" style="endArrow=classic;html=1;rounded=1;labelBackgroundColor=default;strokeColor=default;align=center;verticalAlign=middle;fontFamily=Helvetica;fontSize=11;fontColor=default;shape=connector;curved=1;entryX=1;entryY=1;entryDx=0;entryDy=0;exitX=0.232;exitY=0.925;exitDx=0;exitDy=0;exitPerimeter=0;" parent="1" source="A0CsdmSSOmwbBhm7UZ2E-27" target="A0CsdmSSOmwbBhm7UZ2E-21" edge="1">
          <mxGeometry width="50" height="50" relative="1" as="geometry">
            <mxPoint x="490" y="860" as="sourcePoint" />
            <mxPoint x="540" y="810" as="targetPoint" />
          </mxGeometry>
        </mxCell>
        <mxCell id="A0CsdmSSOmwbBhm7UZ2E-32" value="&lt;font style=&quot;font-size: 20px;&quot;&gt;$$\cdots$$&lt;/font&gt;" style="text;html=1;align=center;verticalAlign=middle;whiteSpace=wrap;rounded=0;rotation=0;movable=1;resizable=1;rotatable=1;deletable=1;editable=1;locked=0;connectable=1;fillColor=#FFFFFF;fontColor=#333333;strokeColor=#ffffff;strokeWidth=0;" parent="1" vertex="1">
          <mxGeometry x="602.5" y="825" width="25" height="15" as="geometry" />
        </mxCell>
        <mxCell id="A0CsdmSSOmwbBhm7UZ2E-76" value="" style="endArrow=classic;html=1;rounded=1;labelBackgroundColor=default;strokeColor=default;align=center;verticalAlign=middle;fontFamily=Helvetica;fontSize=11;fontColor=default;shape=connector;curved=1;entryX=0.551;entryY=0.997;entryDx=0;entryDy=0;exitX=0.579;exitY=0.992;exitDx=0;exitDy=0;exitPerimeter=0;entryPerimeter=0;" parent="1" source="A0CsdmSSOmwbBhm7UZ2E-27" target="A0CsdmSSOmwbBhm7UZ2E-27" edge="1">
          <mxGeometry width="50" height="50" relative="1" as="geometry">
            <mxPoint x="480" y="840" as="sourcePoint" />
            <mxPoint x="530" y="790" as="targetPoint" />
          </mxGeometry>
        </mxCell>
      </root>
    </mxGraphModel>
  </diagram>
</mxfile>
